ply
format ascii 1.0
comment VCGLIB generated
element vertex 776
property float x
property float y
property float z
element face 1264
property list uchar int vertex_indices
end_header
-59 -5 -3 
-59 -5 3 
-59 5 -3 
-59 5 3 
-58.96 -5 -3.018 
-58.96 -5 3.018 
-58.96 5 -3.018 
-58.96 5 3.018 
-56.47 -5 -17.36 
-56.47 -5 17.36 
-56.47 5 -17.36 
-56.47 5 17.36 
-56.43 -5 -17.33 
-56.43 -5 17.33 
-56.43 5 -17.33 
-56.43 5 17.33 
-54.47 -5 -4.424 
-54.47 -5 4.424 
-54.47 5 -4.424 
-54.47 5 4.424 
-54.42 -5 -23 
-54.42 -5 23 
-54.42 5 -23 
-54.42 5 23 
-54.37 -5 -23 
-54.37 -5 23 
-54.37 5 -23 
-54.37 5 23 
-52.7 -5 -14.47 
-52.7 -5 14.47 
-52.7 5 -14.47 
-52.7 5 14.47 
-49.8 -5 -4.989 
-49.8 -5 4.989 
-49.8 5 -4.989 
-49.8 5 4.989 
-49.75 -5 -4.991 
-49.75 -5 4.991 
-49.75 5 -4.991 
-49.75 5 4.991 
-49.67 -5 -22.79 
-49.67 -5 22.79 
-49.67 5 -22.79 
-49.67 5 22.79 
-49.24 -5 -8.682 
-49.24 -5 8.682 
-49.24 5 -8.682 
-49.24 5 8.682 
-48.5 -5 -12.34 
-48.5 -5 12.34 
-48.5 5 -12.34 
-48.5 5 12.34 
-48.46 -5 -12.33 
-48.46 -5 12.33 
-48.46 5 -12.33 
-48.46 5 12.33 
-47.12 -5 -35.63 
-47.12 -5 35.63 
-47.12 5 -35.63 
-47.12 5 35.63 
-47.1 -5 -35.59 
-47.1 -5 35.59 
-47.1 5 -35.59 
-47.1 5 35.59 
-45.09 -5 -21.72 
-45.09 -5 21.72 
-45.09 5 -21.72 
-45.09 5 21.72 
-45.04 -5 -21.71 
-45.04 -5 21.71 
-45.04 5 -21.71 
-45.04 5 21.71 
-44.57 -5 -31.62 
-44.57 -5 31.62 
-44.57 5 -31.62 
-44.57 5 31.62 
-43.3 -5 -25 
-43.3 -5 25 
-43.3 5 -25 
-43.3 5 25 
-43.27 -5 -40.22 
-43.27 -5 40.22 
-43.27 5 -40.22 
-43.27 5 40.22 
-43.22 -5 -40.21 
-43.22 -5 40.21 
-43.22 5 -40.21 
-43.22 5 40.21 
-43 -5 0 
-43 5 0 
-42.28 -5 -7.824 
-42.28 -5 7.824 
-42.28 5 -7.824 
-42.28 5 7.824 
-41.35 -5 -28.19 
-41.35 -5 28.19 
-41.35 5 -28.19 
-41.35 5 28.19 
-41.32 -5 -28.16 
-41.32 -5 28.16 
-41.32 5 -28.16 
-41.32 5 28.16 
-40 -3.5 0 
-40 3.5 0 
-39.98 -5 -15.83 
-39.98 -5 15.83 
-39.98 5 -15.83 
-39.98 5 15.83 
-39.33 -3.5 -7.279 
-39.33 -3.5 7.279 
-39.33 3.5 -7.279 
-39.33 3.5 7.279 
-38.88 -5 -38.4 
-38.88 -5 38.4 
-38.88 5 -38.4 
-38.88 5 38.4 
-37.19 -3.5 -14.72 
-37.19 -3.5 14.72 
-37.19 3.5 -14.72 
-37.19 3.5 14.72 
-35.99 -5 -23.53 
-35.99 -5 23.53 
-35.99 5 -23.53 
-35.99 5 23.53 
-34.94 -5 -35.83 
-34.94 -5 35.83 
-34.94 5 -35.83 
-34.94 5 35.83 
-34.9 -5 -35.8 
-34.9 -5 35.8 
-34.9 5 -35.8 
-34.9 5 35.8 
-33.48 -3.5 -21.89 
-33.48 -3.5 21.89 
-33.48 3.5 -21.89 
-33.48 3.5 21.89 
-32.14 -5 -38.3 
-32.14 -5 38.3 
-32.14 5 -38.3 
-32.14 5 38.3 
-32.1 -5 -49.6 
-32.1 -5 49.6 
-32.1 5 -49.6 
-32.1 5 49.6 
-32.09 -5 -49.55 
-32.09 -5 49.55 
-32.09 5 -49.55 
-32.09 5 49.55 
-31.06 -5 -44.96 
-31.06 -5 44.96 
-31.06 5 -44.96 
-31.06 5 44.96 
-30.41 -5 -30.41 
-30.41 -5 30.41 
-30.41 5 -30.41 
-30.41 5 30.41 
-29.22 -5 -40.63 
-29.22 -5 40.63 
-29.22 5 -40.63 
-29.22 5 40.63 
-29.2 -5 -40.59 
-29.2 -5 40.59 
-29.2 5 -40.59 
-29.2 5 40.59 
-28.28 -3.5 -28.28 
-28.28 -3.5 28.28 
-28.28 3.5 -28.28 
-28.28 3.5 28.28 
-26.9 -5 -52.6 
-26.9 -5 52.6 
-26.9 5 -52.6 
-26.9 5 52.6 
-26.87 -5 -52.57 
-26.87 -5 52.57 
-26.87 5 -52.57 
-26.87 5 52.57 
-23.53 -5 -35.99 
-23.53 -5 35.99 
-23.53 5 -35.99 
-23.53 5 35.99 
-23.4 -5 -49.38 
-23.4 -5 49.38 
-23.4 5 -49.38 
-23.4 5 49.38 
-21.89 -3.5 -33.48 
-21.89 -3.5 33.48 
-21.89 3.5 -33.48 
-21.89 3.5 33.48 
-20.58 -5 -45.62 
-20.58 -5 45.62 
-20.58 5 -45.62 
-20.58 5 45.62 
-20.55 -5 -45.58 
-20.55 -5 45.58 
-20.55 5 -45.58 
-20.55 5 45.58 
-17.1 -5 -46.98 
-17.1 -5 46.98 
-17.1 5 -46.98 
-17.1 5 46.98 
-17 -12.5 0 
-17 -3.5 0 
-17 3.5 0 
-17 12.5 0 
-16.72 -12.5 -3.093 
-16.72 -12.5 3.093 
-16.72 -3.5 -3.093 
-16.72 -3.5 3.093 
-16.72 3.5 -3.093 
-16.72 3.5 3.093 
-16.72 12.5 -3.093 
-16.72 12.5 3.093 
-16.67 -12.5 3.317 
-16.67 3.5 3.317 
-15.83 -5 -39.98 
-15.83 -5 39.98 
-15.83 5 -39.98 
-15.83 5 39.98 
-15.81 -12.5 -6.258 
-15.81 -12.5 6.258 
-15.81 -3.5 -6.258 
-15.81 -3.5 6.258 
-15.81 3.5 -6.258 
-15.81 3.5 6.258 
-15.81 12.5 -6.258 
-15.81 12.5 6.258 
-15.71 -12.5 6.506 
-15.71 3.5 6.506 
-14.72 -3.5 -37.19 
-14.72 -3.5 37.19 
-14.72 3.5 -37.19 
-14.72 3.5 37.19 
-14.23 -12.5 -9.303 
-14.23 -12.5 9.303 
-14.23 -3.5 -9.303 
-14.23 -3.5 9.303 
-14.23 3.5 -9.303 
-14.23 3.5 9.303 
-14.23 12.5 -9.303 
-14.23 12.5 9.303 
-14.13 -12.5 9.445 
-14.13 3.5 9.445 
-13.81 -5 -52.87 
-13.81 -5 52.87 
-13.81 5 -52.87 
-13.81 5 52.87 
-13.56 -5 -48.17 
-13.56 -5 48.17 
-13.56 5 -48.17 
-13.56 5 48.17 
-13.55 -5 -48.13 
-13.55 -5 48.13 
-13.55 5 -48.13 
-13.55 5 48.13 
-13.21 -5 -57.54 
-13.21 -5 57.54 
-13.21 5 -57.54 
-13.21 5 57.54 
-13.2 -5 -57.58 
-13.2 -5 57.58 
-13.2 5 -57.58 
-13.2 5 57.58 
-12.02 -12.5 -12.02 
-12.02 -12.5 12.02 
-12.02 -3.5 -12.02 
-12.02 -3.5 12.02 
-12.02 3.5 -12.02 
-12.02 3.5 12.02 
-12.02 12.5 -12.02 
-12.02 12.5 12.02 
-10 -12.5 0 
-10 12.5 0 
-9.847 -12.5 -1.745 
-9.847 -12.5 1.745 
-9.833 -12.5 -1.82 
-9.833 -12.5 1.82 
-9.826 12.5 -1.859 
-9.826 12.5 1.859 
-9.445 -12.5 14.13 
-9.445 3.5 14.13 
-9.358 -12.5 -3.526 
-9.358 -12.5 3.526 
-9.309 12.5 -3.652 
-9.309 12.5 3.652 
-9.303 -12.5 -14.23 
-9.303 -12.5 14.23 
-9.303 -3.5 -14.23 
-9.303 -3.5 14.23 
-9.303 3.5 -14.23 
-9.303 3.5 14.23 
-9.303 12.5 -14.23 
-9.303 12.5 14.23 
-9.298 -12.5 -3.681 
-9.298 -12.5 3.681 
-8.514 -12.5 -5.246 
-8.514 -12.5 5.246 
-8.468 12.5 -5.319 
-8.468 12.5 5.319 
-8.37 -12.5 -5.472 
-8.37 -12.5 5.472 
-7.824 -5 -42.28 
-7.824 -5 42.28 
-7.824 5 -42.28 
-7.824 5 42.28 
-7.332 -12.5 -6.8 
-7.332 -12.5 6.8 
-7.332 12.5 -6.8 
-7.332 12.5 6.8 
-7.291 -5 -58.62 
-7.291 -5 58.62 
-7.291 5 -58.62 
-7.291 5 58.62 
-7.279 -3.5 -39.33 
-7.279 -3.5 39.33 
-7.279 3.5 -39.33 
-7.279 3.5 39.33 
-7.266 -5 -58.59 
-7.266 -5 58.59 
-7.266 5 -58.59 
-7.266 5 58.59 
-7.071 -12.5 -7.071 
-7.071 -12.5 7.071 
-6.506 -12.5 15.71 
-6.506 3.5 15.71 
-6.258 -12.5 -15.81 
-6.258 -12.5 15.81 
-6.258 -3.5 -15.81 
-6.258 -3.5 15.81 
-6.258 3.5 -15.81 
-6.258 3.5 15.81 
-6.258 12.5 -15.81 
-6.258 12.5 15.81 
-5.941 12.5 -8.044 
-5.941 12.5 8.044 
-5.871 -12.5 -8.095 
-5.871 -12.5 8.095 
-5.472 -12.5 -8.37 
-5.472 -12.5 8.37 
-5.102 -5 -54.41 
-5.102 -5 54.41 
-5.102 5 -54.41 
-5.102 5 54.41 
-4.342 12.5 -9.008 
-4.342 12.5 9.008 
-4.22 -12.5 -9.066 
-4.22 -12.5 9.066 
-3.734 -5 -49.91 
-3.734 -5 49.91 
-3.734 5 -49.91 
-3.734 5 49.91 
-3.724 -5 -49.86 
-3.724 -5 49.86 
-3.724 5 -49.86 
-3.724 5 49.86 
-3.681 -12.5 -9.298 
-3.681 -12.5 9.298 
-3.317 -12.5 16.67 
-3.317 3.5 16.67 
-3.093 -12.5 -16.72 
-3.093 -12.5 16.72 
-3.093 -3.5 -16.72 
-3.093 -3.5 16.72 
-3.093 3.5 -16.72 
-3.093 3.5 16.72 
-3.093 12.5 -16.72 
-3.093 12.5 16.72 
-2.592 12.5 -9.658 
-2.592 12.5 9.658 
-2.481 -12.5 -9.687 
-2.481 -12.5 9.687 
-1.82 -12.5 -9.833 
-1.82 -12.5 9.833 
-0.7521 -12.5 -9.972 
-0.7521 -12.5 9.972 
-0.7521 12.5 -9.972 
-0.7521 12.5 9.972 
-0.000142 -12.5 -10 
-0.000142 -12.5 10 
0 -12.5 -17 
0 -12.5 17 
0 -5 -50 
0 -5 -43 
0 -5 43 
0 -5 50 
0 -3.5 -40 
0 -3.5 -17 
0 -3.5 17 
0 -3.5 40 
0 3.5 -40 
0 3.5 -17 
0 3.5 17 
0 3.5 40 
0 5 -50 
0 5 -43 
0 5 43 
0 5 50 
0 12.5 -17 
0 12.5 17 
0.9996 -12.5 -9.95 
0.9996 -12.5 9.95 
1.114 12.5 -9.938 
1.114 12.5 9.938 
1.82 -12.5 -9.833 
1.82 -12.5 9.833 
2.812 -12.5 -9.596 
2.812 -12.5 9.596 
2.942 12.5 -9.558 
2.942 12.5 9.558 
3.093 -12.5 -16.72 
3.093 -12.5 16.72 
3.093 -3.5 -16.72 
3.093 -3.5 16.72 
3.093 3.5 -16.72 
3.093 3.5 16.72 
3.093 12.5 -16.72 
3.093 12.5 16.72 
3.317 -12.5 16.67 
3.317 3.5 16.67 
3.681 -12.5 -9.298 
3.681 -12.5 9.298 
3.724 -5 -49.86 
3.724 -5 49.86 
3.724 5 -49.86 
3.724 5 49.86 
3.734 -5 -49.91 
3.734 -5 49.91 
3.734 5 -49.91 
3.734 5 49.91 
4.591 -12.5 -8.884 
4.591 -12.5 8.884 
4.667 12.5 -8.844 
4.667 12.5 8.844 
5.102 -5 -54.41 
5.102 -5 54.41 
5.102 5 -54.41 
5.102 5 54.41 
5.472 -12.5 -8.37 
5.472 -12.5 8.37 
6.229 -12.5 -7.823 
6.229 -12.5 7.823 
6.229 12.5 -7.823 
6.229 12.5 7.823 
6.258 -12.5 -15.81 
6.258 -12.5 15.81 
6.258 -3.5 -15.81 
6.258 -3.5 15.81 
6.258 3.5 -15.81 
6.258 3.5 15.81 
6.258 12.5 -15.81 
6.258 12.5 15.81 
6.506 -12.5 15.71 
6.506 3.5 15.71 
7.071 -12.5 -7.071 
7.071 -12.5 7.071 
7.266 -5 -58.59 
7.266 -5 58.59 
7.266 5 -58.59 
7.266 5 58.59 
7.279 -3.5 -39.33 
7.279 -3.5 39.33 
7.291 -5 -58.62 
7.291 -5 58.62 
7.291 5 -58.62 
7.291 5 58.62 
7.575 12.5 -6.529 
7.575 12.5 6.529 
7.63 -12.5 -6.463 
7.63 -12.5 6.463 
7.804 3.5 -39.23 
7.804 3.5 39.23 
7.824 5 -42.28 
7.824 5 42.28 
8.37 -12.5 -5.472 
8.37 -12.5 5.472 
8.389 -5 -42.17 
8.389 -5 42.17 
8.656 12.5 -5.007 
8.656 12.5 5.007 
8.723 -12.5 -4.89 
8.723 -12.5 4.89 
9.298 -12.5 -3.681 
9.298 -12.5 3.681 
9.303 -12.5 -14.23 
9.303 -12.5 14.23 
9.303 -3.5 -14.23 
9.303 -3.5 14.23 
9.303 3.5 -14.23 
9.303 3.5 14.23 
9.303 12.5 -14.23 
9.303 12.5 14.23 
9.436 12.5 -3.311 
9.436 12.5 3.311 
9.445 -12.5 14.13 
9.445 3.5 14.13 
9.473 -12.5 -3.202 
9.473 -12.5 3.202 
9.833 -12.5 -1.82 
9.833 -12.5 1.82 
9.887 -12.5 -1.5 
9.887 -12.5 1.5 
9.887 12.5 -1.5 
9.887 12.5 1.5 
12.02 -12.5 -12.02 
12.02 -12.5 12.02 
12.02 -3.5 -12.02 
12.02 -3.5 12.02 
12.02 3.5 -12.02 
12.02 3.5 12.02 
12.02 12.5 -12.02 
12.02 12.5 12.02 
13 -12.5 -1.5 
13 -12.5 1.5 
13 12.5 -1.5 
13 12.5 1.5 
13.2 -5 -57.58 
13.2 -5 57.58 
13.2 5 -57.58 
13.2 5 57.58 
13.55 -5 -48.13 
13.55 -5 48.13 
13.55 5 -48.13 
13.55 5 48.13 
13.67 -5 -54.76 
13.67 -5 54.76 
13.67 5 -54.76 
13.67 5 54.76 
13.76 -5 -50.01 
13.76 -5 50.01 
13.76 5 -50.01 
13.76 5 50.01 
13.83 -5 -51.91 
13.83 -5 51.91 
13.83 5 -51.91 
13.83 5 51.91 
14.13 -12.5 9.445 
14.13 3.5 9.445 
14.23 -12.5 -9.303 
14.23 -12.5 9.303 
14.23 -3.5 -9.303 
14.23 -3.5 9.303 
14.23 3.5 -9.303 
14.23 3.5 9.303 
14.23 12.5 -9.303 
14.23 12.5 9.303 
14.72 -3.5 -37.19 
14.72 -3.5 37.19 
15.31 3.5 -36.96 
15.31 3.5 36.96 
15.71 -12.5 6.506 
15.71 3.5 6.506 
15.81 -12.5 -6.258 
15.81 -12.5 6.258 
15.81 -3.5 -6.258 
15.81 -3.5 6.258 
15.81 3.5 -6.258 
15.81 3.5 6.258 
15.81 12.5 -6.258 
15.81 12.5 6.258 
15.83 5 -39.98 
15.83 5 39.98 
16.46 -5 -39.73 
16.46 -5 39.73 
16.67 -12.5 3.317 
16.67 3.5 3.317 
16.72 -12.5 -3.093 
16.72 -12.5 3.093 
16.72 -3.5 -3.093 
16.72 -3.5 3.093 
16.72 3.5 -3.093 
16.72 3.5 3.093 
16.72 12.5 -3.093 
16.72 12.5 3.093 
17 -12.5 0 
17 -3.5 0 
17 3.5 0 
17 12.5 0 
17.1 -5 -46.98 
17.1 -5 46.98 
17.1 5 -46.98 
17.1 5 46.98 
20.55 -5 -45.58 
20.55 -5 45.58 
20.55 5 -45.58 
20.55 5 45.58 
20.58 -5 -45.62 
20.58 -5 45.62 
20.58 5 -45.62 
20.58 5 45.62 
21.89 -3.5 -33.48 
21.89 -3.5 33.48 
22.22 3.5 -33.26 
22.22 3.5 33.26 
23.4 -5 -49.38 
23.4 -5 49.38 
23.4 5 -49.38 
23.4 5 49.38 
23.53 5 -35.99 
23.53 5 35.99 
23.89 -5 -35.75 
23.89 -5 35.75 
26.87 -5 -52.57 
26.87 -5 52.57 
26.87 5 -52.57 
26.87 5 52.57 
26.9 -5 -52.6 
26.9 -5 52.6 
26.9 5 -52.6 
26.9 5 52.6 
28.28 -3.5 -28.28 
28.28 -3.5 28.28 
28.28 3.5 -28.28 
28.28 3.5 28.28 
29.2 -5 -40.59 
29.2 -5 40.59 
29.2 5 -40.59 
29.2 5 40.59 
29.22 -5 -40.63 
29.22 -5 40.63 
29.22 5 -40.63 
29.22 5 40.63 
30.41 -5 -30.41 
30.41 -5 30.41 
30.41 5 -30.41 
30.41 5 30.41 
31.06 -5 -44.96 
31.06 -5 44.96 
31.06 5 -44.96 
31.06 5 44.96 
32.09 -5 -49.55 
32.09 -5 49.55 
32.09 5 -49.55 
32.09 5 49.55 
32.1 -5 -49.6 
32.1 -5 49.6 
32.1 5 -49.6 
32.1 5 49.6 
32.14 -5 -38.3 
32.14 -5 38.3 
32.14 5 -38.3 
32.14 5 38.3 
33.26 3.5 -22.22 
33.26 3.5 22.22 
33.48 -3.5 -21.89 
33.48 -3.5 21.89 
34.9 -5 -35.8 
34.9 -5 35.8 
34.9 5 -35.8 
34.9 5 35.8 
34.94 -5 -35.83 
34.94 -5 35.83 
34.94 5 -35.83 
34.94 5 35.83 
35.75 -5 -23.89 
35.75 -5 23.89 
35.99 5 -23.53 
35.99 5 23.53 
36.96 3.5 -15.31 
36.96 3.5 15.31 
37.19 -3.5 -14.72 
37.19 -3.5 14.72 
38.88 -5 -38.4 
38.88 -5 38.4 
38.88 5 -38.4 
38.88 5 38.4 
39.23 3.5 -7.804 
39.23 3.5 7.804 
39.33 -3.5 -7.279 
39.33 -3.5 7.279 
39.73 -5 -16.46 
39.73 -5 16.46 
39.98 5 -15.83 
39.98 5 15.83 
40 -3.5 0 
40 3.5 0 
41.32 -5 -28.16 
41.32 -5 28.16 
41.32 5 -28.16 
41.32 5 28.16 
41.35 -5 -28.19 
41.35 -5 28.19 
41.35 5 -28.19 
41.35 5 28.19 
42.17 -5 -8.389 
42.17 -5 8.389 
42.28 5 -7.824 
42.28 5 7.824 
43 -5 0 
43 5 0 
43.22 -5 -40.21 
43.22 -5 40.21 
43.22 5 -40.21 
43.22 5 40.21 
43.27 -5 -40.22 
43.27 -5 40.22 
43.27 5 -40.22 
43.27 5 40.22 
43.3 -5 -25 
43.3 -5 25 
43.3 5 -25 
43.3 5 25 
44.57 -5 -31.62 
44.57 -5 31.62 
44.57 5 -31.62 
44.57 5 31.62 
45.04 -5 -21.71 
45.04 -5 21.71 
45.04 5 -21.71 
45.04 5 21.71 
45.09 -5 -21.72 
45.09 -5 21.72 
45.09 5 -21.72 
45.09 5 21.72 
47.1 -5 -35.59 
47.1 -5 35.59 
47.1 5 -35.59 
47.1 5 35.59 
47.12 -5 -35.63 
47.12 -5 35.63 
47.12 5 -35.63 
47.12 5 35.63 
48.46 -5 -12.33 
48.46 -5 12.33 
48.46 5 -12.33 
48.46 5 12.33 
48.5 -5 -12.34 
48.5 -5 12.34 
48.5 5 -12.34 
48.5 5 12.34 
49.24 -5 -8.682 
49.24 -5 8.682 
49.24 5 -8.682 
49.24 5 8.682 
49.67 -5 -22.79 
49.67 -5 22.79 
49.67 5 -22.79 
49.67 5 22.79 
49.75 -5 -4.991 
49.75 -5 4.991 
49.75 5 -4.991 
49.75 5 4.991 
49.8 -5 -4.989 
49.8 -5 4.989 
49.8 5 -4.989 
49.8 5 4.989 
52.7 -5 -14.47 
52.7 -5 14.47 
52.7 5 -14.47 
52.7 5 14.47 
54.37 -5 -23 
54.37 -5 23 
54.37 5 -23 
54.37 5 23 
54.42 -5 -23 
54.42 -5 23 
54.42 5 -23 
54.42 5 23 
54.47 -5 -4.424 
54.47 -5 4.424 
54.47 5 -4.424 
54.47 5 4.424 
56.43 -5 -17.33 
56.43 -5 17.33 
56.43 5 -17.33 
56.43 5 17.33 
56.47 -5 -17.36 
56.47 -5 17.36 
56.47 5 -17.36 
56.47 5 17.36 
58.96 -5 -3.018 
58.96 -5 3.018 
58.96 5 -3.018 
58.96 5 3.018 
59 -5 -3 
59 -5 3 
59 5 -3 
59 5 3 
3 312 214 300 
3 312 381 384 
3 312 300 381 
3 382 313 387 
3 301 313 382 
3 215 313 301 
3 215 229 313 
3 215 185 229 
3 177 185 215 
3 177 165 185 
3 153 165 177 
3 153 133 165 
3 121 133 153 
3 121 117 133 
3 105 117 121 
3 91 117 105 
3 91 109 117 
3 91 102 109 
3 88 102 91 
3 88 108 102 
3 90 108 88 
3 104 108 90 
3 104 116 108 
3 104 132 116 
3 120 132 104 
3 120 164 132 
3 152 164 120 
3 152 184 164 
3 176 184 152 
3 176 228 184 
3 214 228 176 
3 214 312 228 
3 572 566 573 
3 201 204 200 
3 206 204 201 
3 206 218 204 
3 220 218 206 
3 220 232 218 
3 234 232 220 
3 234 262 232 
3 264 262 234 
3 264 284 262 
3 286 284 264 
3 286 324 284 
3 326 324 286 
3 326 358 324 
3 360 358 326 
3 360 378 358 
3 385 378 360 
3 385 408 378 
3 410 408 385 
3 410 442 408 
3 444 442 410 
3 444 482 442 
3 484 482 444 
3 484 502 482 
3 504 502 484 
3 504 536 502 
3 538 536 504 
3 538 550 536 
3 552 550 538 
3 552 564 550 
3 566 564 552 
3 566 572 564 
3 528 518 526 
3 532 526 530 
3 528 526 532 
3 518 528 520 
3 525 515 523 
3 525 531 533 
3 525 523 531 
3 515 525 517 
3 393 314 388 
3 391 303 394 
3 315 303 391 
3 315 217 303 
3 231 217 315 
3 231 179 217 
3 187 179 231 
3 187 155 179 
3 167 155 187 
3 167 123 155 
3 135 123 167 
3 135 107 123 
3 119 107 135 
3 119 93 107 
3 111 93 119 
3 111 89 93 
3 103 89 111 
3 103 92 89 
3 110 92 103 
3 110 106 92 
3 118 106 110 
3 118 122 106 
3 134 122 118 
3 134 154 122 
3 166 154 134 
3 166 178 154 
3 186 178 166 
3 186 216 178 
3 230 216 186 
3 230 302 216 
3 314 302 230 
3 314 393 302 
3 574 570 575 
3 203 208 202 
3 210 208 203 
3 210 222 208 
3 224 222 210 
3 224 236 222 
3 238 236 224 
3 238 266 236 
3 268 266 238 
3 268 288 266 
3 290 288 268 
3 290 328 288 
3 330 328 290 
3 330 362 328 
3 364 362 330 
3 364 389 362 
3 396 389 364 
3 396 412 389 
3 414 412 396 
3 414 446 412 
3 448 446 414 
3 448 486 446 
3 488 486 448 
3 488 506 486 
3 508 506 488 
3 508 540 506 
3 542 540 508 
3 542 554 540 
3 556 554 542 
3 556 568 554 
3 570 568 556 
3 570 574 568 
3 231 357 323 
3 187 267 167 
3 187 279 267 
3 231 279 187 
3 231 323 279 
3 267 135 167 
3 241 135 267 
3 241 119 135 
3 227 119 241 
3 227 111 119 
3 213 111 227 
3 213 103 111 
3 202 103 213 
3 202 110 103 
3 208 110 202 
3 208 118 110 
3 222 118 208 
3 222 134 118 
3 236 134 222 
3 236 166 134 
3 266 166 236 
3 266 186 166 
3 288 186 266 
3 288 230 186 
3 328 230 288 
3 328 314 230 
3 362 314 328 
3 362 388 314 
3 389 388 362 
3 389 468 388 
3 412 468 389 
3 412 546 468 
3 446 546 412 
3 446 590 546 
3 486 590 446 
3 486 610 590 
3 506 610 486 
3 506 640 610 
3 540 640 506 
3 540 656 640 
3 554 656 540 
3 554 664 656 
3 568 664 554 
3 568 673 664 
3 574 673 568 
3 574 665 673 
3 563 665 574 
3 563 657 665 
3 549 657 563 
3 549 641 657 
3 535 641 549 
3 535 611 641 
3 507 611 535 
3 507 591 611 
3 493 591 507 
3 493 547 591 
3 451 547 493 
3 451 469 547 
3 417 469 451 
3 417 391 469 
3 390 391 417 
3 390 315 391 
3 357 315 390 
3 357 231 315 
3 223 239 225 
3 209 203 202 
3 209 211 203 
3 223 211 209 
3 223 225 211 
3 575 569 574 
3 571 569 575 
3 571 555 569 
3 557 555 571 
3 557 541 555 
3 543 541 557 
3 543 507 541 
3 509 507 543 
3 509 487 507 
3 489 487 509 
3 489 447 487 
3 449 447 489 
3 449 413 447 
3 415 413 449 
3 415 390 413 
3 397 390 415 
3 397 363 390 
3 365 363 397 
3 365 329 363 
3 331 329 365 
3 331 289 329 
3 291 289 331 
3 291 267 289 
3 269 267 291 
3 269 237 267 
3 239 237 269 
3 239 223 237 
3 623 641 611 
3 394 469 391 
3 471 469 394 
3 559 469 471 
3 559 547 469 
3 597 547 559 
3 597 591 547 
3 623 591 597 
3 623 611 591 
3 468 393 388 
3 468 470 393 
3 468 558 470 
3 546 558 468 
3 546 596 558 
3 590 596 546 
3 590 622 596 
3 610 622 590 
3 610 654 622 
3 640 654 610 
3 656 654 640 
3 656 670 654 
3 664 670 656 
3 664 684 670 
3 673 684 664 
3 673 687 684 
3 665 687 673 
3 665 685 687 
3 665 671 685 
3 657 671 665 
3 657 655 671 
3 641 655 657 
3 641 623 655 
3 512 490 500 
3 575 513 571 
3 575 512 513 
3 570 512 575 
3 556 512 570 
3 513 557 571 
3 491 513 501 
3 491 557 513 
3 491 543 557 
3 477 543 491 
3 465 543 477 
3 465 509 543 
3 441 509 465 
3 441 489 509 
3 431 489 441 
3 431 449 489 
3 407 449 431 
3 407 415 449 
3 401 415 407 
3 401 397 415 
3 375 397 401 
3 375 365 397 
3 367 365 375 
3 367 331 365 
3 343 331 367 
3 343 291 331 
3 333 291 343 
3 333 269 291 
3 307 269 333 
3 307 239 269 
3 297 239 307 
3 297 225 239 
3 283 225 297 
3 283 211 225 
3 277 211 283 
3 277 203 211 
3 271 203 277 
3 271 210 203 
3 276 210 271 
3 276 224 210 
3 282 224 276 
3 282 238 224 
3 296 238 282 
3 296 268 238 
3 306 268 296 
3 306 290 268 
3 332 290 306 
3 342 290 332 
3 342 330 290 
3 366 330 342 
3 366 364 330 
3 374 364 366 
3 374 396 364 
3 400 396 374 
3 400 414 396 
3 406 414 400 
3 406 448 414 
3 430 448 406 
3 430 488 448 
3 440 488 430 
3 440 508 488 
3 464 508 440 
3 464 542 508 
3 476 542 464 
3 476 556 542 
3 476 512 556 
3 490 512 476 
3 635 595 607 
3 623 615 647 
3 597 615 623 
3 647 655 623 
3 462 532 516 
3 434 532 462 
3 422 532 434 
3 422 520 532 
3 533 463 517 
3 533 435 463 
3 533 423 435 
3 521 423 533 
3 719 663 695 
3 703 663 719 
3 677 663 703 
3 677 647 663 
3 677 655 647 
3 707 655 677 
3 707 671 655 
3 767 735 755 
3 747 735 767 
3 723 735 747 
3 723 707 735 
3 723 671 707 
3 723 685 671 
3 739 685 723 
3 739 687 685 
3 774 759 775 
3 758 759 774 
3 758 739 759 
3 738 739 758 
3 738 687 739 
3 738 684 687 
3 722 684 738 
3 722 670 684 
3 754 746 766 
3 734 746 754 
3 734 722 746 
3 706 722 734 
3 706 670 722 
3 706 654 670 
3 676 654 706 
3 676 622 654 
3 694 702 718 
3 662 702 694 
3 662 676 702 
3 662 622 676 
3 646 622 662 
3 614 622 646 
3 614 596 622 
3 606 626 634 
3 594 626 606 
3 594 614 626 
3 582 614 594 
3 582 596 614 
3 582 558 596 
3 520 558 582 
3 520 470 558 
3 422 470 520 
3 422 393 470 
3 352 393 422 
3 352 302 393 
3 260 340 310 
3 244 340 260 
3 244 352 340 
3 252 352 244 
3 252 302 352 
3 252 216 302 
3 194 216 252 
3 194 178 216 
3 142 182 170 
3 150 182 142 
3 162 182 150 
3 162 194 182 
3 162 178 194 
3 162 154 178 
3 130 154 162 
3 130 122 154 
3 58 114 82 
3 74 114 58 
3 100 114 74 
3 100 130 114 
3 100 122 130 
3 70 122 100 
3 70 106 122 
3 10 42 22 
3 30 42 10 
3 54 42 30 
3 54 70 42 
3 54 106 70 
3 54 92 106 
3 38 92 54 
3 38 89 92 
3 3 18 2 
3 19 18 3 
3 19 38 18 
3 39 38 19 
3 39 89 38 
3 39 93 89 
3 55 93 39 
3 55 107 93 
3 23 31 11 
3 43 31 23 
3 43 55 31 
3 71 55 43 
3 71 107 55 
3 71 123 107 
3 101 123 71 
3 101 155 123 
3 83 75 59 
3 115 75 83 
3 115 101 75 
3 115 155 101 
3 131 155 115 
3 163 155 131 
3 163 179 155 
3 171 151 143 
3 183 151 171 
3 183 163 151 
3 195 163 183 
3 195 179 163 
3 195 217 179 
3 253 217 195 
3 253 303 217 
3 311 245 261 
3 341 245 311 
3 341 253 245 
3 353 253 341 
3 353 303 253 
3 353 394 303 
3 423 394 353 
3 423 471 394 
3 521 471 423 
3 521 559 471 
3 583 559 521 
3 583 597 559 
3 583 615 597 
3 595 615 583 
3 595 627 615 
3 595 635 627 
3 500 510 512 
3 510 500 498 
3 500 496 498 
3 497 501 499 
3 497 491 501 
3 481 491 497 
3 481 477 491 
3 473 477 481 
3 473 465 477 
3 453 465 473 
3 453 441 465 
3 437 441 453 
3 437 431 441 
3 419 431 437 
3 419 407 431 
3 403 407 419 
3 403 401 407 
3 377 401 403 
3 377 375 401 
3 371 375 377 
3 371 367 375 
3 355 367 371 
3 355 343 367 
3 337 343 355 
3 337 333 343 
3 321 333 337 
3 321 307 333 
3 299 307 321 
3 299 297 307 
3 293 297 299 
3 293 283 297 
3 275 283 293 
3 275 277 283 
3 275 271 277 
3 270 271 275 
3 274 271 270 
3 274 276 271 
3 292 276 274 
3 292 282 276 
3 292 296 282 
3 298 296 292 
3 298 306 296 
3 320 306 298 
3 320 332 306 
3 336 332 320 
3 336 342 332 
3 354 342 336 
3 354 366 342 
3 370 366 354 
3 370 374 366 
3 376 374 370 
3 376 400 374 
3 402 400 376 
3 402 406 400 
3 418 406 402 
3 418 430 406 
3 436 430 418 
3 436 440 430 
3 452 440 436 
3 452 464 440 
3 472 464 452 
3 472 476 464 
3 480 476 472 
3 480 490 476 
3 496 490 480 
3 496 500 490 
3 499 513 511 
3 513 499 501 
3 511 512 510 
3 512 511 513 
3 697 707 699 
3 697 677 675 
3 697 699 677 
3 707 697 705 
3 717 715 719 
3 677 679 675 
3 681 679 677 
3 681 701 679 
3 703 701 681 
3 715 701 703 
3 715 713 701 
3 715 717 713 
3 695 717 719 
3 717 695 693 
3 649 647 645 
3 691 693 695 
3 691 689 693 
3 691 661 689 
3 663 661 691 
3 651 661 663 
3 651 649 661 
3 647 649 651 
3 647 637 645 
3 637 615 613 
3 637 639 615 
3 637 647 639 
3 631 625 627 
3 615 617 613 
3 619 617 615 
3 627 617 619 
3 627 625 617 
3 633 631 635 
3 629 631 633 
3 625 631 629 
3 607 633 635 
3 633 607 605 
3 585 595 587 
3 581 587 583 
3 585 587 581 
3 607 601 605 
3 603 601 607 
3 603 593 601 
3 595 593 603 
3 595 585 593 
3 583 577 581 
3 519 579 521 
3 577 579 519 
3 577 583 579 
3 527 533 531 
3 521 527 519 
3 529 527 521 
3 533 527 529 
3 463 515 517 
3 515 463 461 
3 421 427 423 
3 457 461 463 
3 457 455 461 
3 435 455 457 
3 435 433 455 
3 435 425 433 
3 427 425 435 
3 427 421 425 
3 383 423 395 
3 383 353 351 
3 383 395 353 
3 423 383 421 
3 317 311 309 
3 349 351 353 
3 349 347 351 
3 341 347 349 
3 341 339 347 
3 341 317 339 
3 319 317 341 
3 311 317 319 
3 261 309 311 
3 309 261 259 
3 247 245 249 
3 247 253 251 
3 247 249 253 
3 261 255 259 
3 257 255 261 
3 257 243 255 
3 245 243 257 
3 245 247 243 
3 197 253 199 
3 197 195 193 
3 197 199 195 
3 253 197 251 
3 189 195 191 
3 173 171 169 
3 173 175 171 
3 181 175 173 
3 181 183 175 
3 181 191 183 
3 189 191 181 
3 195 189 193 
3 171 141 169 
3 141 171 143 
3 161 159 163 
3 143 145 141 
3 147 145 143 
3 147 149 145 
3 151 149 147 
3 151 157 149 
3 159 157 151 
3 159 161 157 
3 137 163 139 
3 137 131 129 
3 137 139 131 
3 163 137 161 
3 81 87 83 
3 131 125 129 
3 127 125 131 
3 127 113 125 
3 115 113 127 
3 87 113 115 
3 87 85 113 
3 87 81 85 
3 83 57 81 
3 57 83 59 
3 99 97 101 
3 59 61 57 
3 63 61 59 
3 63 73 61 
3 75 73 63 
3 75 95 73 
3 97 95 75 
3 97 99 95 
3 101 77 99 
3 77 71 69 
3 77 79 71 
3 77 101 79 
3 67 41 65 
3 71 65 69 
3 67 65 71 
3 21 27 23 
3 25 27 21 
3 25 43 27 
3 41 43 25 
3 41 67 43 
3 23 9 21 
3 9 23 11 
3 49 31 51 
3 49 55 53 
3 49 51 55 
3 11 13 9 
3 15 13 11 
3 15 29 13 
3 31 29 15 
3 31 49 29 
3 55 45 53 
3 45 39 37 
3 45 47 39 
3 45 55 47 
3 39 33 37 
3 5 3 1 
3 5 7 3 
3 5 19 7 
3 17 19 5 
3 33 19 17 
3 33 35 19 
3 33 39 35 
3 2 1 3 
3 1 2 0 
3 16 6 18 
3 32 38 36 
3 32 34 38 
3 16 34 32 
3 16 18 34 
3 2 4 0 
3 6 4 2 
3 6 16 4 
3 38 44 36 
3 44 54 52 
3 44 46 54 
3 44 38 46 
3 28 50 30 
3 12 10 8 
3 12 14 10 
3 12 30 14 
3 28 30 12 
3 54 48 52 
3 50 48 54 
3 50 28 48 
3 10 20 8 
3 20 10 22 
3 26 40 24 
3 26 20 22 
3 26 24 20 
3 64 70 68 
3 64 66 70 
3 64 42 66 
3 40 42 64 
3 40 26 42 
3 76 70 78 
3 76 100 98 
3 76 78 100 
3 70 76 68 
3 60 74 62 
3 60 58 56 
3 60 62 58 
3 100 94 98 
3 96 94 100 
3 96 72 94 
3 74 72 96 
3 74 60 72 
3 82 56 58 
3 56 82 80 
3 86 80 82 
3 128 126 130 
3 124 126 128 
3 124 114 126 
3 112 114 124 
3 112 86 114 
3 84 86 112 
3 80 86 84 
3 136 130 138 
3 136 162 160 
3 136 138 162 
3 130 136 128 
3 144 150 146 
3 144 142 140 
3 144 146 142 
3 162 156 160 
3 158 156 162 
3 150 156 158 
3 150 148 156 
3 150 144 148 
3 170 140 142 
3 140 170 168 
3 188 194 192 
3 170 172 168 
3 174 172 170 
3 174 180 172 
3 182 180 174 
3 182 188 180 
3 190 188 182 
3 194 188 190 
3 194 196 192 
3 196 252 250 
3 196 198 252 
3 196 194 198 
3 248 250 252 
3 254 260 258 
3 254 256 260 
3 242 256 254 
3 242 244 256 
3 246 244 242 
3 246 248 244 
3 250 248 246 
3 310 258 260 
3 258 310 308 
3 348 350 346 
3 318 308 310 
3 318 316 308 
3 318 338 316 
3 340 338 318 
3 340 346 338 
3 348 346 340 
3 350 348 352 
3 392 350 352 
3 380 422 420 
3 380 392 422 
3 350 392 380 
3 432 456 454 
3 454 462 460 
3 454 456 462 
3 422 424 420 
3 426 424 422 
3 426 432 424 
3 434 432 426 
3 456 432 434 
3 516 460 462 
3 460 516 514 
3 524 514 516 
3 522 532 530 
3 522 524 532 
3 514 524 522 
3 576 520 578 
3 576 582 580 
3 576 578 582 
3 520 576 518 
3 584 582 586 
3 600 606 604 
3 600 602 606 
3 600 594 602 
3 592 594 600 
3 592 586 594 
3 584 586 592 
3 582 584 580 
3 606 632 604 
3 632 606 634 
3 616 626 618 
3 612 618 614 
3 616 618 612 
3 634 628 632 
3 630 628 634 
3 630 624 628 
3 626 624 630 
3 626 616 624 
3 614 636 612 
3 636 646 644 
3 636 638 646 
3 636 614 638 
3 662 648 650 
3 650 644 646 
3 650 648 644 
3 692 690 694 
3 688 690 692 
3 688 662 690 
3 660 662 688 
3 648 662 660 
3 694 716 692 
3 716 694 718 
3 678 702 680 
3 674 680 676 
3 678 680 674 
3 718 712 716 
3 714 712 718 
3 714 700 712 
3 702 700 714 
3 702 678 700 
3 696 676 698 
3 696 706 704 
3 696 698 706 
3 676 696 674 
3 710 704 706 
3 748 754 752 
3 748 750 754 
3 748 734 750 
3 732 734 748 
3 732 710 734 
3 708 710 732 
3 704 710 708 
3 754 764 752 
3 764 754 766 
3 760 766 762 
3 720 726 722 
3 724 726 720 
3 744 726 724 
3 744 746 726 
3 744 762 746 
3 760 762 744 
3 766 760 764 
3 722 728 720 
3 728 738 736 
3 728 730 738 
3 728 722 730 
3 756 742 758 
3 768 774 772 
3 768 770 774 
3 768 758 770 
3 756 758 768 
3 738 740 736 
3 742 740 738 
3 742 756 740 
3 775 772 774 
3 772 775 773 
3 759 741 757 
3 771 773 775 
3 771 769 773 
3 771 757 769 
3 759 757 771 
3 741 739 737 
3 741 743 739 
3 741 759 743 
3 739 729 737 
3 721 731 723 
3 729 731 721 
3 729 739 731 
3 765 763 767 
3 723 725 721 
3 727 725 723 
3 747 725 727 
3 747 745 725 
3 747 761 745 
3 763 761 747 
3 763 765 761 
3 767 753 765 
3 753 767 755 
3 705 711 707 
3 751 753 755 
3 751 749 753 
3 735 749 751 
3 735 733 749 
3 735 709 733 
3 711 709 735 
3 711 705 709 
3 511 495 499 
3 572 510 564 
3 572 511 510 
3 562 511 572 
3 510 550 564 
3 548 511 562 
3 494 510 498 
3 494 550 510 
3 494 536 550 
3 478 536 494 
3 466 536 478 
3 466 502 536 
3 438 502 466 
3 438 482 502 
3 428 482 438 
3 428 442 482 
3 404 442 428 
3 404 408 442 
3 398 408 404 
3 398 378 408 
3 372 378 398 
3 372 358 378 
3 368 358 372 
3 368 324 358 
3 344 324 368 
3 344 284 324 
3 334 284 344 
3 334 262 284 
3 304 262 334 
3 304 232 262 
3 294 232 304 
3 294 218 232 
3 280 218 294 
3 280 204 218 
3 272 204 280 
3 272 200 204 
3 270 200 272 
3 270 212 200 
3 273 212 270 
3 273 226 212 
3 281 226 273 
3 281 240 226 
3 295 240 281 
3 295 263 240 
3 305 263 295 
3 305 278 263 
3 335 278 305 
3 335 322 278 
3 345 322 335 
3 345 356 322 
3 369 356 345 
3 373 356 369 
3 373 379 356 
3 399 379 373 
3 399 416 379 
3 405 416 399 
3 405 450 416 
3 429 450 405 
3 429 492 450 
3 439 492 429 
3 439 503 492 
3 467 503 439 
3 467 534 503 
3 479 534 467 
3 479 548 534 
3 479 511 548 
3 495 511 479 
3 753 745 765 
3 653 705 675 
3 669 705 653 
3 675 621 653 
3 461 531 515 
3 433 531 461 
3 421 531 433 
3 421 519 531 
3 530 460 514 
3 530 432 460 
3 530 420 432 
3 518 420 530 
3 693 701 717 
3 661 701 693 
3 661 675 701 
3 661 621 675 
3 645 621 661 
3 613 621 645 
3 613 599 621 
3 605 625 633 
3 593 625 605 
3 593 613 625 
3 581 613 593 
3 581 599 613 
3 581 561 599 
3 519 561 581 
3 519 475 561 
3 421 475 519 
3 421 382 475 
3 351 382 421 
3 351 301 382 
3 259 339 309 
3 243 339 259 
3 243 351 339 
3 251 351 243 
3 251 301 351 
3 251 215 301 
3 193 215 251 
3 193 177 215 
3 141 181 169 
3 149 181 141 
3 161 181 149 
3 161 193 181 
3 161 177 193 
3 161 153 177 
3 129 153 161 
3 129 121 153 
3 57 113 81 
3 73 113 57 
3 99 113 73 
3 99 129 113 
3 99 121 129 
3 69 121 99 
3 69 105 121 
3 9 41 21 
3 29 41 9 
3 53 41 29 
3 53 69 41 
3 53 105 69 
3 53 91 105 
3 37 91 53 
3 37 88 91 
3 0 17 1 
3 16 17 0 
3 16 37 17 
3 36 37 16 
3 36 88 37 
3 36 90 88 
3 52 90 36 
3 52 104 90 
3 20 28 8 
3 40 28 20 
3 40 52 28 
3 68 52 40 
3 68 104 52 
3 68 120 104 
3 98 120 68 
3 98 152 120 
3 80 72 56 
3 112 72 80 
3 112 98 72 
3 112 152 98 
3 128 152 112 
3 160 152 128 
3 160 176 152 
3 168 148 140 
3 180 148 168 
3 180 160 148 
3 192 160 180 
3 192 176 160 
3 192 214 176 
3 250 214 192 
3 250 300 214 
3 308 242 258 
3 338 242 308 
3 338 250 242 
3 350 250 338 
3 350 300 250 
3 350 381 300 
3 420 381 350 
3 420 474 381 
3 518 474 420 
3 518 560 474 
3 580 560 518 
3 580 598 560 
3 632 592 604 
3 624 592 632 
3 612 592 624 
3 612 580 592 
3 612 598 580 
3 612 620 598 
3 644 620 612 
3 644 652 620 
3 716 660 692 
3 700 660 716 
3 674 660 700 
3 674 644 660 
3 674 652 644 
3 704 652 674 
3 704 668 652 
3 764 732 752 
3 744 732 764 
3 720 732 744 
3 720 704 732 
3 720 668 704 
3 720 682 668 
3 736 682 720 
3 736 686 682 
3 773 756 772 
3 757 756 773 
3 757 736 756 
3 737 736 757 
3 737 686 736 
3 737 683 686 
3 721 683 737 
3 721 669 683 
3 721 705 669 
3 721 733 705 
3 745 733 721 
3 745 753 733 
3 573 565 572 
3 205 201 200 
3 205 207 201 
3 219 207 205 
3 219 221 207 
3 219 235 221 
3 233 235 219 
3 233 265 235 
3 263 265 233 
3 263 287 265 
3 285 287 263 
3 285 327 287 
3 325 327 285 
3 325 361 327 
3 359 361 325 
3 359 386 361 
3 379 386 359 
3 379 411 386 
3 409 411 379 
3 443 411 409 
3 443 445 411 
3 443 485 445 
3 483 485 443 
3 483 505 485 
3 503 505 483 
3 537 505 503 
3 537 539 505 
3 537 553 539 
3 551 553 537 
3 551 567 553 
3 565 567 551 
3 565 573 567 
3 459 382 387 
3 381 458 384 
3 474 458 381 
3 474 544 458 
3 560 544 474 
3 560 588 544 
3 598 588 560 
3 598 608 588 
3 620 608 598 
3 620 642 608 
3 652 642 620 
3 668 642 652 
3 668 658 642 
3 682 658 668 
3 682 666 658 
3 686 666 682 
3 686 672 666 
3 686 667 672 
3 683 667 686 
3 683 659 667 
3 669 659 683 
3 669 643 659 
3 653 643 669 
3 653 609 643 
3 621 609 653 
3 599 609 621 
3 599 589 609 
3 561 589 599 
3 561 545 589 
3 475 545 561 
3 475 459 545 
3 382 459 475 
3 444 588 484 
3 608 484 588 
3 608 504 484 
3 642 504 608 
3 642 538 504 
3 658 538 642 
3 658 552 538 
3 666 552 658 
3 666 566 552 
3 672 566 666 
3 672 573 566 
3 667 573 672 
3 667 567 573 
3 659 567 667 
3 659 553 567 
3 643 553 659 
3 643 539 553 
3 609 539 643 
3 609 505 539 
3 589 505 609 
3 589 485 505 
3 545 485 589 
3 545 445 485 
3 459 445 545 
3 459 411 445 
3 387 411 459 
3 387 386 411 
3 313 386 387 
3 313 361 386 
3 229 361 313 
3 229 327 361 
3 185 327 229 
3 185 287 327 
3 165 287 185 
3 165 265 287 
3 133 265 165 
3 133 235 265 
3 117 235 133 
3 117 221 235 
3 109 221 117 
3 109 207 221 
3 102 207 109 
3 102 201 207 
3 108 201 102 
3 108 206 201 
3 116 206 108 
3 116 220 206 
3 132 220 116 
3 132 234 220 
3 164 234 132 
3 164 264 234 
3 184 264 164 
3 184 286 264 
3 228 286 184 
3 228 326 286 
3 312 326 228 
3 312 360 326 
3 384 360 312 
3 384 385 360 
3 458 385 384 
3 458 410 385 
3 544 410 458 
3 544 444 410 
3 588 444 544 
